<svg xmlns="http://www.w3.org/2000/svg" xmlns:xlink="http://www.w3.org/1999/xlink" width="500" zoomAndPan="magnify" viewBox="0 0 375 374.999991" height="500" preserveAspectRatio="xMidYMid meet" version="1.0"><defs><clipPath id="2b504a9f8b"><path d="M 24 125 L 351 125 L 351 249 L 24 249 Z M 24 125 " clip-rule="nonzero"/></clipPath><clipPath id="dbde21f0fc"><path d="M 34.980469 81.007812 L 364.589844 131.722656 L 339.746094 293.191406 L 10.136719 242.480469 Z M 34.980469 81.007812 " clip-rule="nonzero"/></clipPath><clipPath id="3565e6ba05"><path d="M 34.980469 81.007812 L 364.589844 131.722656 L 339.746094 293.191406 L 10.136719 242.480469 Z M 34.980469 81.007812 " clip-rule="nonzero"/></clipPath><clipPath id="26bc551547"><path d="M 60 142 L 317 142 L 317 232 L 60 232 Z M 60 142 " clip-rule="nonzero"/></clipPath><clipPath id="26b3f7aff1"><path d="M 34.980469 81.007812 L 364.589844 131.722656 L 339.746094 293.191406 L 10.136719 242.480469 Z M 34.980469 81.007812 " clip-rule="nonzero"/></clipPath><clipPath id="e80aeeca04"><path d="M 34.980469 81.007812 L 364.589844 131.722656 L 339.746094 293.191406 L 10.136719 242.480469 Z M 34.980469 81.007812 " clip-rule="nonzero"/></clipPath><clipPath id="ab8191c746"><path d="M 127 131 L 252 131 L 252 361 L 127 361 Z M 127 131 " clip-rule="nonzero"/></clipPath><clipPath id="12ec48ba76"><path d="M 82.664062 349.5 L 117.070312 131.875 L 278.4375 157.390625 L 244.03125 375.015625 Z M 82.664062 349.5 " clip-rule="nonzero"/></clipPath><clipPath id="2e8e4aeee7"><path d="M 82.664062 349.5 L 134.742188 20.105469 L 296.109375 45.617188 L 244.03125 375.015625 Z M 82.664062 349.5 " clip-rule="nonzero"/></clipPath><clipPath id="e91c60b7d4"><path d="M 145 131 L 234 131 L 234 325 L 145 325 Z M 145 131 " clip-rule="nonzero"/></clipPath><clipPath id="4d73d3af51"><path d="M 82.664062 349.5 L 117.070312 131.875 L 278.4375 157.390625 L 244.03125 375.015625 Z M 82.664062 349.5 " clip-rule="nonzero"/></clipPath><clipPath id="b3c50ebc52"><path d="M 82.664062 349.5 L 134.742188 20.105469 L 296.109375 45.617188 L 244.03125 375.015625 Z M 82.664062 349.5 " clip-rule="nonzero"/></clipPath><clipPath id="a39304b324"><path d="M 154.207031 157.691406 L 220.890625 157.691406 L 220.890625 216.183594 L 154.207031 216.183594 Z M 154.207031 157.691406 " clip-rule="nonzero"/></clipPath><clipPath id="398fd4f47a"><path d="M 156.847656 167.21875 C 151.445312 176.113281 155.25 184.773438 160.03125 189.367188 L 187.980469 216.183594 L 215.335938 189.464844 C 219.785156 184.519531 221.488281 179.277344 220.539062 173.4375 C 219.234375 165.363281 212.578125 159.097656 204.355469 158.203125 C 199.3125 157.660156 194.445312 159.085938 190.640625 162.246094 C 189.617188 163.09375 188.703125 164.046875 187.90625 165.078125 C 186.960938 163.902344 185.851562 162.828125 184.597656 161.875 C 180.226562 158.550781 174.660156 157.230469 169.316406 158.257812 C 164.253906 159.234375 159.710938 162.5 156.847656 167.21875 Z M 156.847656 167.21875 " clip-rule="nonzero"/></clipPath><clipPath id="9f9c4c291b"><path d="M 156.914062 160.078125 L 218.175781 160.078125 L 218.175781 213.8125 L 156.914062 213.8125 Z M 156.914062 160.078125 " clip-rule="nonzero"/></clipPath><clipPath id="392c3dcffe"><path d="M 159.339844 168.832031 C 154.378906 177.003906 157.871094 184.957031 162.265625 189.179688 L 187.941406 213.8125 L 213.074219 189.265625 C 217.15625 184.726562 218.722656 179.910156 217.855469 174.546875 C 216.652344 167.125 210.539062 161.371094 202.984375 160.546875 C 198.355469 160.050781 193.878906 161.359375 190.386719 164.261719 C 189.445312 165.042969 188.605469 165.917969 187.875 166.863281 C 187.003906 165.785156 185.984375 164.796875 184.832031 163.921875 C 180.816406 160.867188 175.707031 159.65625 170.792969 160.597656 C 166.144531 161.496094 161.96875 164.496094 159.339844 168.832031 Z M 159.339844 168.832031 " clip-rule="nonzero"/></clipPath><clipPath id="dd7e1f41dd"><path d="M 143 168 L 238 168 L 238 344 L 143 344 Z M 143 168 " clip-rule="nonzero"/></clipPath><clipPath id="83662292e4"><path d="M 108.796875 335.25 L 135.125 168.699219 L 258.003906 188.125 L 231.671875 354.675781 Z M 108.796875 335.25 " clip-rule="nonzero"/></clipPath><clipPath id="605c672a2e"><path d="M 108.796875 335.25 L 148.585938 83.574219 L 271.460938 103 L 231.671875 354.675781 Z M 108.796875 335.25 " clip-rule="nonzero"/></clipPath><clipPath id="7dce27ee8d"><path d="M 156 168 L 224 168 L 224 317 L 156 317 Z M 156 168 " clip-rule="nonzero"/></clipPath><clipPath id="90cdb02779"><path d="M 108.796875 335.25 L 135.125 168.699219 L 258.003906 188.125 L 231.671875 354.675781 Z M 108.796875 335.25 " clip-rule="nonzero"/></clipPath><clipPath id="9b2cc6a6ef"><path d="M 108.796875 335.25 L 148.585938 83.574219 L 271.460938 103 L 231.671875 354.675781 Z M 108.796875 335.25 " clip-rule="nonzero"/></clipPath><clipPath id="c5db07709c"><path d="M 136.972656 131.613281 L 245.679688 131.613281 L 245.679688 261.839844 L 136.972656 261.839844 Z M 136.972656 131.613281 " clip-rule="nonzero"/></clipPath><clipPath id="6ff49a99e2"><path d="M 155.648438 162 L 219.445312 162 L 219.445312 217.769531 L 155.648438 217.769531 Z M 155.648438 162 " clip-rule="nonzero"/></clipPath><clipPath id="622efd9f6f"><path d="M 158.171875 170.925781 C 153.007812 179.4375 156.648438 187.71875 161.21875 192.117188 L 187.957031 217.769531 L 214.132812 192.207031 C 218.386719 187.476562 220.015625 182.460938 219.109375 176.875 C 217.859375 169.148438 211.492188 163.15625 203.628906 162.300781 C 198.804688 161.78125 194.144531 163.144531 190.503906 166.167969 C 189.527344 166.980469 188.652344 167.890625 187.890625 168.878906 C 186.984375 167.753906 185.921875 166.722656 184.722656 165.8125 C 180.542969 162.632812 175.21875 161.371094 170.101562 162.351562 C 165.261719 163.289062 160.914062 166.414062 158.171875 170.925781 Z M 158.171875 170.925781 " clip-rule="nonzero"/></clipPath><clipPath id="31ae37ec2a"><path d="M 127.644531 0 L 247.355469 0 L 247.355469 119.710938 L 127.644531 119.710938 Z M 127.644531 0 " clip-rule="nonzero"/></clipPath><clipPath id="ca41eb3428"><path d="M 187.5 0 C 154.441406 0 127.644531 26.796875 127.644531 59.855469 C 127.644531 92.914062 154.441406 119.710938 187.5 119.710938 C 220.558594 119.710938 247.355469 92.914062 247.355469 59.855469 C 247.355469 26.796875 220.558594 0 187.5 0 Z M 187.5 0 " clip-rule="nonzero"/></clipPath><clipPath id="c88e0a4599"><path d="M 143.367188 54.800781 L 231.796875 54.800781 L 231.796875 107.261719 L 143.367188 107.261719 Z M 143.367188 54.800781 " clip-rule="nonzero"/></clipPath></defs><g clip-path="url(#2b504a9f8b)"><g clip-path="url(#dbde21f0fc)"><g clip-path="url(#3565e6ba05)"><path fill="#0cc0df" d="M 289.460938 248.453125 L 85.664062 248.683594 C 51.683594 248.726562 24.101562 221.207031 24.0625 187.226562 C 24.019531 153.246094 51.535156 125.664062 85.519531 125.625 L 289.3125 125.386719 C 323.296875 125.34375 350.875 152.863281 350.917969 186.84375 C 350.960938 220.832031 323.441406 248.414062 289.460938 248.453125 Z M 289.460938 248.453125 " fill-opacity="1" fill-rule="nonzero"/></g></g></g><g clip-path="url(#26bc551547)"><g clip-path="url(#26b3f7aff1)"><g clip-path="url(#e80aeeca04)"><path fill="#ffffff" d="M 235.082031 207.058594 C 235.097656 220.316406 224.367188 231.078125 211.105469 231.089844 L 163.976562 231.140625 C 150.71875 231.15625 139.960938 220.425781 139.945312 207.164062 L 139.898438 167.019531 C 139.882812 153.761719 150.613281 143 163.875 142.988281 L 211.003906 142.9375 C 224.257812 142.921875 235.019531 153.652344 235.03125 166.914062 Z M 259.128906 160.835938 C 262.992188 160.835938 266.117188 157.695312 266.109375 153.835938 C 266.109375 149.972656 262.96875 146.84375 259.109375 146.855469 C 255.242188 146.855469 252.117188 149.996094 252.128906 153.855469 C 252.136719 157.714844 255.261719 160.835938 259.128906 160.835938 Z M 259.167969 193.945312 C 263.03125 193.945312 266.15625 190.804688 266.148438 186.945312 C 266.136719 183.089844 263.007812 179.957031 259.148438 179.964844 C 255.28125 179.964844 252.15625 183.105469 252.167969 186.964844 C 252.167969 190.824219 255.300781 193.953125 259.167969 193.945312 Z M 259.1875 213.074219 C 255.320312 213.078125 252.195312 216.214844 252.207031 220.074219 C 252.207031 223.941406 255.347656 227.066406 259.203125 227.058594 C 263.0625 227.046875 266.195312 223.917969 266.1875 220.058594 C 266.183594 216.199219 263.050781 213.074219 259.1875 213.074219 Z M 309.757812 160.773438 C 313.621094 160.773438 316.746094 157.632812 316.738281 153.773438 C 316.738281 149.910156 313.597656 146.78125 309.738281 146.792969 C 305.871094 146.792969 302.746094 149.933594 302.757812 153.792969 C 302.757812 157.648438 305.890625 160.78125 309.757812 160.773438 Z M 309.792969 193.890625 C 313.660156 193.890625 316.785156 190.75 316.773438 186.890625 C 316.773438 183.027344 313.632812 179.902344 309.777344 179.910156 C 305.910156 179.910156 302.785156 183.050781 302.792969 186.910156 C 302.796875 190.769531 305.929688 193.890625 309.792969 193.890625 Z M 316.8125 220.003906 C 316.8125 216.136719 313.671875 213.011719 309.8125 213.019531 C 305.949219 213.023438 302.824219 216.160156 302.832031 220.019531 C 302.84375 223.878906 305.972656 227.011719 309.832031 227 C 313.699219 227 316.824219 223.867188 316.8125 220.003906 Z M 284.457031 177.304688 C 288.324219 177.304688 291.449219 174.164062 291.4375 170.304688 C 291.4375 166.441406 288.296875 163.316406 284.441406 163.324219 C 280.582031 163.335938 277.449219 166.464844 277.457031 170.324219 C 277.460938 174.183594 280.597656 177.316406 284.457031 177.304688 Z M 284.476562 196.433594 C 280.613281 196.4375 277.488281 199.574219 277.496094 203.433594 C 277.5 207.300781 280.636719 210.425781 284.496094 210.417969 C 288.363281 210.414062 291.488281 207.277344 291.476562 203.417969 C 291.476562 199.558594 288.34375 196.433594 284.476562 196.433594 Z M 67.082031 161.054688 C 70.945312 161.054688 74.074219 157.914062 74.0625 154.054688 C 74.0625 150.191406 70.921875 147.0625 67.0625 147.074219 C 63.199219 147.074219 60.070312 150.214844 60.082031 154.074219 C 60.085938 157.929688 63.214844 161.0625 67.082031 161.054688 Z M 67.117188 194.171875 C 70.984375 194.171875 74.109375 191.03125 74.101562 187.171875 C 74.097656 183.308594 70.960938 180.183594 67.101562 180.191406 C 63.234375 180.191406 60.109375 183.332031 60.121094 187.191406 C 60.128906 191.050781 63.253906 194.171875 67.117188 194.171875 Z M 67.140625 213.300781 C 63.273438 213.304688 60.148438 216.441406 60.15625 220.300781 C 60.160156 224.167969 63.296875 227.292969 67.15625 227.28125 C 71.023438 227.28125 74.148438 224.140625 74.140625 220.285156 C 74.128906 216.425781 71.003906 213.292969 67.140625 213.300781 Z M 117.710938 161 C 121.574219 161 124.699219 157.859375 124.691406 154 C 124.6875 150.136719 121.550781 147.007812 117.691406 147.019531 C 113.832031 147.027344 110.699219 150.160156 110.710938 154.019531 C 110.71875 157.878906 113.84375 161 117.710938 161 Z M 117.746094 194.109375 C 121.613281 194.109375 124.738281 190.96875 124.730469 187.109375 C 124.71875 183.25 121.589844 180.121094 117.730469 180.128906 C 113.863281 180.128906 110.738281 183.269531 110.75 187.128906 C 110.75 190.988281 113.882812 194.117188 117.746094 194.109375 Z M 117.769531 213.238281 C 113.902344 213.242188 110.777344 216.378906 110.785156 220.238281 C 110.789062 224.105469 113.925781 227.230469 117.785156 227.21875 C 121.652344 227.21875 124.777344 224.078125 124.769531 220.222656 C 124.765625 216.363281 121.632812 213.238281 117.769531 213.238281 Z M 92.410156 177.53125 C 96.277344 177.53125 99.402344 174.390625 99.390625 170.53125 C 99.390625 166.667969 96.25 163.542969 92.394531 163.550781 C 88.535156 163.5625 85.402344 166.691406 85.410156 170.550781 C 85.421875 174.410156 88.554688 177.535156 92.410156 177.53125 Z M 92.429688 196.660156 C 88.566406 196.664062 85.441406 199.800781 85.449219 203.660156 C 85.449219 207.527344 88.589844 210.652344 92.449219 210.644531 C 96.316406 210.640625 99.441406 207.5 99.429688 203.644531 C 99.421875 199.785156 96.296875 196.652344 92.429688 196.660156 Z M 92.429688 196.660156 " fill-opacity="1" fill-rule="nonzero"/></g></g></g><g clip-path="url(#ab8191c746)"><g clip-path="url(#12ec48ba76)"><g clip-path="url(#2e8e4aeee7)"><path fill="#0cc0df" d="M 251.164062 95.714844 L 250.546875 299.511719 C 250.449219 333.492188 222.816406 360.957031 188.835938 360.859375 C 154.855469 360.761719 127.390625 333.128906 127.488281 299.148438 L 128.09375 95.351562 C 128.195312 61.371094 155.824219 33.90625 189.808594 34.003906 C 223.796875 34.105469 251.261719 61.734375 251.164062 95.714844 Z M 251.164062 95.714844 " fill-opacity="1" fill-rule="nonzero"/></g></g></g><g clip-path="url(#e91c60b7d4)"><g clip-path="url(#4d73d3af51)"><g clip-path="url(#b3c50ebc52)"><path fill="#ffffff" d="M 209.542969 149.921875 C 222.796875 149.964844 233.515625 160.738281 233.476562 174 L 233.332031 221.128906 C 233.292969 234.382812 222.515625 245.101562 209.253906 245.058594 L 169.109375 244.941406 C 155.851562 244.902344 145.136719 234.128906 145.175781 220.863281 L 145.320312 173.738281 C 145.359375 160.480469 156.136719 149.765625 169.398438 149.804688 Z M 163.417969 125.6875 C 163.433594 121.820312 160.308594 118.683594 156.449219 118.675781 C 152.582031 118.660156 149.445312 121.789062 149.4375 125.644531 C 149.421875 129.511719 152.550781 132.648438 156.410156 132.65625 C 160.269531 132.664062 163.40625 129.550781 163.417969 125.6875 Z M 196.53125 125.785156 C 196.542969 121.917969 193.417969 118.78125 189.558594 118.773438 C 185.699219 118.769531 182.554688 121.886719 182.550781 125.746094 C 182.535156 129.609375 185.660156 132.75 189.519531 132.753906 C 193.378906 132.769531 196.523438 129.652344 196.53125 125.785156 Z M 215.660156 125.84375 C 215.644531 129.707031 218.769531 132.847656 222.628906 132.855469 C 226.496094 132.867188 229.632812 129.742188 229.640625 125.882812 C 229.644531 122.023438 226.527344 118.878906 222.667969 118.871094 C 218.8125 118.859375 215.675781 121.976562 215.660156 125.84375 Z M 163.566406 75.058594 C 163.582031 71.191406 160.453125 68.054688 156.597656 68.046875 C 152.730469 68.03125 149.59375 71.160156 149.585938 75.019531 C 149.570312 78.882812 152.699219 82.023438 156.554688 82.027344 C 160.414062 82.042969 163.558594 78.921875 163.566406 75.058594 Z M 196.683594 75.15625 C 196.699219 71.292969 193.574219 68.152344 189.714844 68.148438 C 185.847656 68.132812 182.710938 71.257812 182.703125 75.117188 C 182.6875 78.980469 185.816406 82.121094 189.675781 82.128906 C 193.53125 82.140625 196.667969 79.023438 196.683594 75.15625 Z M 222.824219 68.246094 C 218.960938 68.230469 215.820312 71.355469 215.8125 75.214844 C 215.800781 79.082031 218.925781 82.21875 222.785156 82.226562 C 226.644531 82.230469 229.789062 79.113281 229.792969 75.253906 C 229.808594 71.390625 226.691406 68.253906 222.824219 68.246094 Z M 179.996094 100.425781 C 180.007812 96.558594 176.882812 93.417969 173.023438 93.414062 C 169.160156 93.398438 166.019531 96.523438 166.011719 100.382812 C 166.007812 104.242188 169.125 107.386719 172.984375 107.394531 C 176.839844 107.40625 179.988281 104.28125 179.996094 100.425781 Z M 199.125 100.484375 C 199.109375 104.347656 202.234375 107.488281 206.09375 107.492188 C 209.960938 107.507812 213.097656 104.382812 213.105469 100.523438 C 213.121094 96.65625 209.992188 93.519531 206.132812 93.511719 C 202.277344 93.5 199.136719 96.617188 199.125 100.484375 Z M 162.84375 317.730469 C 162.859375 313.867188 159.730469 310.726562 155.871094 310.722656 C 152.007812 310.707031 148.867188 313.832031 148.863281 317.691406 C 148.847656 321.558594 151.972656 324.695312 155.832031 324.703125 C 159.691406 324.714844 162.835938 321.597656 162.84375 317.730469 Z M 195.960938 317.832031 C 195.976562 313.964844 192.847656 310.828125 188.988281 310.820312 C 185.125 310.804688 181.984375 313.933594 181.980469 317.792969 C 181.964844 321.65625 185.089844 324.796875 188.949219 324.800781 C 192.808594 324.808594 195.945312 321.695312 195.960938 317.832031 Z M 215.089844 317.890625 C 215.074219 321.753906 218.203125 324.894531 222.0625 324.898438 C 225.925781 324.914062 229.066406 321.789062 229.070312 317.929688 C 229.085938 314.0625 225.960938 310.925781 222.101562 310.917969 C 218.242188 310.914062 215.097656 314.023438 215.089844 317.890625 Z M 162.996094 267.105469 C 163.011719 263.238281 159.886719 260.101562 156.027344 260.09375 C 152.160156 260.078125 149.023438 263.207031 149.015625 267.0625 C 149.011719 270.921875 152.128906 274.066406 155.988281 274.074219 C 159.847656 274.082031 162.984375 270.96875 162.996094 267.105469 Z M 196.109375 267.203125 C 196.121094 263.335938 192.996094 260.199219 189.136719 260.191406 C 185.277344 260.1875 182.132812 263.304688 182.125 267.164062 C 182.113281 271.027344 185.238281 274.167969 189.097656 274.171875 C 192.953125 274.1875 196.101562 271.070312 196.109375 267.203125 Z M 215.238281 267.261719 C 215.222656 271.125 218.347656 274.265625 222.207031 274.269531 C 226.074219 274.285156 229.210938 271.160156 229.21875 267.300781 C 229.234375 263.4375 226.105469 260.296875 222.246094 260.289062 C 218.390625 260.277344 215.253906 263.394531 215.238281 267.261719 Z M 179.425781 292.46875 C 179.441406 288.605469 176.3125 285.464844 172.453125 285.460938 C 168.589844 285.445312 165.449219 288.570312 165.445312 292.429688 C 165.4375 296.289062 168.554688 299.433594 172.414062 299.441406 C 176.273438 299.445312 179.410156 296.328125 179.425781 292.46875 Z M 198.554688 292.527344 C 198.539062 296.394531 201.667969 299.53125 205.523438 299.539062 C 209.390625 299.554688 212.527344 296.425781 212.535156 292.570312 C 212.550781 288.703125 209.421875 285.566406 205.566406 285.558594 C 201.707031 285.550781 198.5625 288.664062 198.554688 292.527344 Z M 198.554688 292.527344 " fill-opacity="1" fill-rule="nonzero"/></g></g></g><g clip-path="url(#a39304b324)"><g clip-path="url(#398fd4f47a)"><path fill="#ffffff" d="M 154.207031 157.917969 L 220.890625 157.917969 L 220.890625 216.183594 L 154.207031 216.183594 Z M 154.207031 157.917969 " fill-opacity="1" fill-rule="nonzero"/></g></g><g clip-path="url(#9f9c4c291b)"><g clip-path="url(#392c3dcffe)"><path fill="#ffffff" d="M 156.914062 160.285156 L 218.175781 160.285156 L 218.175781 213.8125 L 156.914062 213.8125 Z M 156.914062 160.285156 " fill-opacity="1" fill-rule="nonzero"/></g></g><g clip-path="url(#dd7e1f41dd)"><g clip-path="url(#83662292e4)"><g clip-path="url(#605c672a2e)"><path fill="#ffffff" d="M 237.378906 141.585938 L 236.910156 297.101562 C 236.832031 323.035156 215.75 343.992188 189.816406 343.917969 C 163.882812 343.84375 142.925781 322.757812 143 296.824219 L 143.464844 141.308594 C 143.539062 115.375 164.625 94.417969 190.558594 94.492188 C 216.496094 94.566406 237.453125 115.652344 237.378906 141.585938 Z M 237.378906 141.585938 " fill-opacity="1" fill-rule="nonzero"/></g></g></g><g clip-path="url(#7dce27ee8d)"><g clip-path="url(#90cdb02779)"><g clip-path="url(#9b2cc6a6ef)"><path fill="#ffffff" d="M 205.617188 182.949219 C 215.734375 182.980469 223.910156 191.203125 223.878906 201.324219 L 223.769531 237.289062 C 223.738281 247.402344 215.519531 255.582031 205.398438 255.550781 L 174.761719 255.460938 C 164.644531 255.429688 156.46875 247.207031 156.5 237.085938 L 156.609375 201.121094 C 156.640625 191.007812 164.859375 182.828125 174.980469 182.859375 Z M 170.421875 164.457031 C 170.429688 161.503906 168.046875 159.109375 165.101562 159.105469 C 162.152344 159.09375 159.757812 161.480469 159.75 164.425781 C 159.738281 167.375 162.125 169.769531 165.070312 169.773438 C 168.015625 169.78125 170.410156 167.40625 170.421875 164.457031 Z M 195.6875 164.53125 C 195.699219 161.582031 193.3125 159.183594 190.367188 159.179688 C 187.421875 159.175781 185.023438 161.554688 185.019531 164.5 C 185.007812 167.449219 187.394531 169.84375 190.335938 169.851562 C 193.28125 169.859375 195.679688 167.480469 195.6875 164.53125 Z M 210.285156 164.574219 C 210.273438 167.523438 212.660156 169.921875 215.605469 169.925781 C 218.554688 169.9375 220.949219 167.550781 220.953125 164.605469 C 220.957031 161.660156 218.578125 159.261719 215.632812 159.257812 C 212.691406 159.246094 210.296875 161.625 210.285156 164.574219 Z M 170.53125 125.820312 C 170.542969 122.871094 168.15625 120.476562 165.214844 120.46875 C 162.261719 120.457031 159.867188 122.84375 159.863281 125.789062 C 159.851562 128.738281 162.238281 131.132812 165.183594 131.140625 C 168.125 131.148438 170.527344 128.769531 170.53125 125.820312 Z M 195.804688 125.894531 C 195.816406 122.945312 193.429688 120.550781 190.484375 120.546875 C 187.535156 120.535156 185.140625 122.921875 185.136719 125.867188 C 185.125 128.816406 187.511719 131.210938 190.457031 131.214844 C 193.398438 131.226562 195.792969 128.84375 195.804688 125.894531 Z M 215.753906 120.621094 C 212.804688 120.609375 210.40625 122.996094 210.402344 125.941406 C 210.390625 128.890625 212.777344 131.285156 215.722656 131.289062 C 218.667969 131.296875 221.066406 128.914062 221.070312 125.972656 C 221.082031 123.023438 218.703125 120.628906 215.753906 120.621094 Z M 183.070312 145.175781 C 183.078125 142.226562 180.695312 139.832031 177.75 139.828125 C 174.800781 139.816406 172.40625 142.203125 172.398438 145.148438 C 172.394531 148.09375 174.773438 150.492188 177.71875 150.496094 C 180.664062 150.507812 183.0625 148.121094 183.070312 145.175781 Z M 197.667969 145.222656 C 197.65625 148.171875 200.042969 150.566406 202.984375 150.570312 C 205.933594 150.582031 208.332031 148.199219 208.335938 145.253906 C 208.347656 142.304688 205.960938 139.90625 203.015625 139.902344 C 200.074219 139.890625 197.679688 142.273438 197.667969 145.222656 Z M 169.980469 311.007812 C 169.992188 308.058594 167.605469 305.664062 164.660156 305.65625 C 161.710938 305.644531 159.316406 308.03125 159.3125 310.976562 C 159.300781 313.925781 161.6875 316.320312 164.628906 316.328125 C 167.574219 316.335938 169.972656 313.957031 169.980469 311.007812 Z M 195.253906 311.082031 C 195.265625 308.132812 192.878906 305.738281 189.933594 305.734375 C 186.984375 305.722656 184.589844 308.109375 184.582031 311.054688 C 184.574219 314.003906 186.957031 316.398438 189.902344 316.402344 C 192.847656 316.40625 195.242188 314.03125 195.253906 311.082031 Z M 209.851562 311.128906 C 209.839844 314.078125 212.226562 316.472656 215.171875 316.476562 C 218.121094 316.488281 220.515625 314.101562 220.519531 311.160156 C 220.53125 308.207031 218.144531 305.8125 215.199219 305.808594 C 212.253906 305.804688 209.855469 308.175781 209.851562 311.128906 Z M 170.097656 272.371094 C 170.109375 269.421875 167.722656 267.027344 164.777344 267.023438 C 161.828125 267.011719 159.433594 269.398438 159.429688 272.34375 C 159.425781 275.285156 161.804688 277.6875 164.75 277.691406 C 167.691406 277.695312 170.085938 275.320312 170.097656 272.371094 Z M 195.363281 272.449219 C 195.375 269.5 192.992188 267.101562 190.046875 267.097656 C 187.101562 267.09375 184.699219 269.472656 184.695312 272.417969 C 184.683594 275.367188 187.070312 277.761719 190.015625 277.765625 C 192.960938 277.777344 195.359375 275.398438 195.363281 272.449219 Z M 209.960938 272.492188 C 209.953125 275.441406 212.335938 277.835938 215.28125 277.84375 C 218.230469 277.855469 220.628906 275.46875 220.632812 272.523438 C 220.644531 269.574219 218.257812 267.179688 215.3125 267.171875 C 212.367188 267.164062 209.972656 269.542969 209.960938 272.492188 Z M 182.632812 291.730469 C 182.644531 288.78125 180.257812 286.386719 177.316406 286.378906 C 174.367188 286.367188 171.96875 288.753906 171.964844 291.699219 C 171.960938 294.644531 174.339844 297.042969 177.285156 297.050781 C 180.230469 297.054688 182.625 294.675781 182.632812 291.730469 Z M 197.230469 291.773438 C 197.222656 294.722656 199.605469 297.121094 202.550781 297.125 C 205.5 297.136719 207.894531 294.75 207.902344 291.804688 C 207.914062 288.855469 205.527344 286.460938 202.582031 286.457031 C 199.636719 286.449219 197.238281 288.824219 197.230469 291.773438 Z M 197.230469 291.773438 " fill-opacity="1" fill-rule="nonzero"/></g></g></g><g clip-path="url(#c5db07709c)"><path fill="#0cc0df" d="M 136.972656 131.613281 L 245.679688 131.613281 L 245.679688 261.976562 L 136.972656 261.976562 Z M 136.972656 131.613281 " fill-opacity="1" fill-rule="nonzero"/></g><g clip-path="url(#6ff49a99e2)"><g clip-path="url(#622efd9f6f)"><path fill="#ffffff" d="M 155.648438 162.027344 L 219.445312 162.027344 L 219.445312 217.769531 L 155.648438 217.769531 Z M 155.648438 162.027344 " fill-opacity="1" fill-rule="nonzero"/></g></g><g clip-path="url(#31ae37ec2a)"><g clip-path="url(#ca41eb3428)"><path fill="#0cc0df" d="M 127.644531 0 L 247.355469 0 L 247.355469 119.710938 L 127.644531 119.710938 Z M 127.644531 0 " fill-opacity="1" fill-rule="nonzero"/></g></g><g clip-path="url(#c88e0a4599)"><path fill="#ffffff" d="M 143.210938 63.1875 L 143.210938 56.273438 C 143.210938 56.070312 143.25 55.875 143.324219 55.691406 C 143.402344 55.503906 143.511719 55.339844 143.65625 55.195312 C 143.796875 55.054688 143.960938 54.945312 144.148438 54.867188 C 144.335938 54.792969 144.527344 54.753906 144.730469 54.753906 L 230.257812 54.753906 C 230.460938 54.753906 230.652344 54.792969 230.839844 54.867188 C 231.027344 54.945312 231.191406 55.054688 231.332031 55.195312 C 231.476562 55.339844 231.585938 55.503906 231.664062 55.691406 C 231.738281 55.875 231.777344 56.070312 231.777344 56.273438 L 231.777344 63.1875 C 231.777344 64.640625 231.707031 66.085938 231.5625 67.527344 C 231.421875 68.972656 231.207031 70.40625 230.925781 71.828125 C 230.640625 73.25 230.289062 74.65625 229.871094 76.042969 C 229.449219 77.429688 228.960938 78.796875 228.40625 80.136719 C 227.851562 81.476562 227.230469 82.785156 226.546875 84.0625 C 225.863281 85.34375 225.117188 86.585938 224.3125 87.789062 C 223.507812 88.996094 222.644531 90.160156 221.726562 91.28125 C 220.804688 92.402344 219.832031 93.476562 218.804688 94.5 C 217.78125 95.527344 216.707031 96.5 215.585938 97.417969 C 214.464844 98.339844 213.300781 99.203125 212.097656 100.007812 C 210.890625 100.8125 209.648438 101.558594 208.367188 102.242188 C 207.089844 102.925781 205.78125 103.546875 204.441406 104.101562 C 203.101562 104.65625 201.738281 105.144531 200.347656 105.5625 C 198.960938 105.984375 197.554688 106.335938 196.132812 106.621094 C 194.710938 106.902344 193.277344 107.117188 191.835938 107.257812 C 190.390625 107.398438 188.945312 107.472656 187.496094 107.472656 C 186.042969 107.472656 184.597656 107.398438 183.152344 107.257812 C 181.710938 107.117188 180.277344 106.902344 178.855469 106.621094 C 177.433594 106.335938 176.027344 105.984375 174.640625 105.5625 C 173.253906 105.144531 171.886719 104.65625 170.546875 104.101562 C 169.207031 103.546875 167.898438 102.925781 166.621094 102.242188 C 165.339844 101.558594 164.097656 100.8125 162.890625 100.007812 C 161.6875 99.203125 160.523438 98.339844 159.402344 97.417969 C 158.28125 96.5 157.207031 95.527344 156.183594 94.5 C 155.15625 93.476562 154.183594 92.402344 153.265625 91.28125 C 152.34375 90.160156 151.480469 88.996094 150.675781 87.789062 C 149.871094 86.585938 149.125 85.34375 148.441406 84.0625 C 147.757812 82.785156 147.136719 81.476562 146.582031 80.136719 C 146.027344 78.796875 145.539062 77.429688 145.117188 76.042969 C 144.699219 74.65625 144.347656 73.25 144.0625 71.828125 C 143.78125 70.40625 143.566406 68.972656 143.425781 67.527344 C 143.285156 66.085938 143.210938 64.640625 143.210938 63.1875 Z M 143.210938 63.1875 " fill-opacity="1" fill-rule="nonzero"/></g></svg>